<svg xmlns="http://www.w3.org/2000/svg" xmlns:xlink="http://www.w3.org/1999/xlink" id="Layer_1" x="0px" y="0px" viewBox="0 0 554.7 226.8" style="enable-background:new 0 0 554.7 226.8;" xml:space="preserve">
<title>logos</title>
<g>
	<path d="M39,69.9h35c6.6,0,11.7,1.6,15.3,4.5c4,3.3,6.3,8.2,6.3,14.1c0,6.8-2.8,11.1-8.4,13.7v0.3c7.4,2.5,11.6,9.1,11.6,17.1   c0,7.6-2.9,13.6-7.7,17.2c-4,2.9-9.4,4.3-16.4,4.3H39.1L39,69.9L39,69.9z M70.5,97.8c3.8,0,6.5-2.1,6.5-6.3c0-4-2.9-6.1-6.6-6.1   h-12v12.3h12.1L70.5,97.8z M72.3,125.4c4.2,0,7.4-2.6,7.4-7.3c0-4.9-3.3-7.3-7.5-7.3H58.4v14.6L72.3,125.4z M102.3,69.9h18.3v71.3   h-18.3V69.9z"></path>
	<g>
		<path id="A" d="M124.2,115.8c0-16.1,10.4-27,26.5-27s26.3,10.9,26.3,27c0,16.2-10.2,27-26.3,27S124.2,132,124.2,115.8z     M158.8,115.8c0-8.9-2.9-14.5-8.3-14.5c-5.5,0-8.1,5.6-8.1,14.5s2.7,14.5,8.1,14.5C156,130.4,158.8,124.9,158.8,115.8z"></path>
	</g>
	<g>
		<path d="M179.2,115.8c0-16.1,10.4-27,26.5-27s26.3,10.9,26.3,27c0,16.2-10.2,27-26.3,27S179.2,132,179.2,115.8z M213.8,115.8    c0-8.9-2.9-14.5-8.3-14.5s-8.1,5.6-8.1,14.5s2.7,14.5,8.1,14.5C210.9,130.4,213.8,124.9,213.8,115.8z"></path>
	</g>
	<path d="M235.6,90.3h17v7.6h0.3c3.3-6,8-9.2,15.3-9.2c6.4,0,11.2,3.2,13.7,8.7h0.3c4.1-6.7,9.6-8.7,15.8-8.7   c11.8,0,16.9,8.7,16.9,20.4v32.1H297v-28.8c0-5.2-1.6-8.6-6.2-8.6c-4.4,0-6.7,4.1-6.7,9.7v27.8h-17.7v-28.8c0-5.2-1.6-8.6-6.2-8.6   c-4.4,0-6.7,4.1-6.7,9.7v27.8h-17.9v-51V90.3z M337.6,134.5h-0.2v6.6h-17V69.8h17.9v25.7h0.3c3.3-4.4,7.9-6.8,14.5-6.8   c12.8,0,20.2,11.5,20.2,26.9c0,17.3-8,27.3-21.3,27.3C346.3,142.9,340.6,140.2,337.6,134.5L337.6,134.5z M355,115.5   c0-8.2-3-13.5-8.4-13.5s-9,5.2-9,13.5c0,8.1,3.5,13.5,9,13.5S355,123.7,355,115.5z M375.2,115.6c0-15.9,10.5-27,25.7-27   c7.6,0,13.4,2.4,17.9,6.6c5.9,5.7,8.5,14.6,8.3,25H393c0.7,6.4,3.8,9.6,9.2,9.6c3.1,0,5.9-1.4,7-4.8h17.2   c-3,11.6-12,17.5-24.9,17.5C385.8,142.6,375.2,132,375.2,115.6L375.2,115.6z M393,110.3h16.3c-0.3-6.2-3.7-9.4-7.9-9.4   C396.4,101,393.8,104.5,393,110.3z M447.5,99h0.3c3.7-7.1,8.5-9.8,14.6-9.8c1.4,0,2.4,0.2,2.9,0.5v15.6h-0.4   c-10.5-1.9-16.7,3.1-16.7,14.6v21.2h-17.9V90.4h17V99L447.5,99z"></path>
	<path d="M467.4,141.2h17.2c0.6,2.2,2.9,4.3,7.2,4.3c5.8,0,7.7-3.6,7.7-8.9V133h-0.4c-2.9,3.3-6.6,5.8-12.3,5.8   c-11,0-20.5-8.1-20.5-24c0-14.6,7.8-25.9,19.7-25.9c6.8,0,11,2.8,13.7,7.1h0.3v-5.6h17v44.1c0,8.1-2.9,14.5-7.1,18.2   c-4.4,4-10.8,5.6-18,5.6C478.5,158.2,469,152.7,467.4,141.2L467.4,141.2z M500.2,113.8c0-6.4-3-11.5-8.2-11.5   c-5,0-8.2,4.5-8.2,11.5c0,6.8,3.2,11.7,8.2,11.7C497.2,125.6,500.2,120.5,500.2,113.8z"></path>
</g>
</svg>