<svg xmlns="http://www.w3.org/2000/svg" width="70.894" height="52.591" viewBox="0 0 70.894 52.591"><g id="Group_382" data-name="Group 382" transform="translate(0.005 -0.001)"><path id="Path_239" data-name="Path 239" d="M35.519,52.586c-9.157,0-18.316.015-27.473-.006C2.75,52.567.011,49.8,0,44.471Q-.014,26.3,0,8.124C.011,2.8,2.748.018,8.044.014q27.474-.022,54.946,0c5.1.006,7.88,2.83,7.886,7.953q.025,18.325,0,36.651c-.006,5.126-2.788,7.943-7.884,7.958C53.835,52.6,44.678,52.586,35.519,52.586Zm3.68-6.055c.617-.936,1.281-1.624,2.468-1.227.745.249,1.323.944,1.026,1.645-1.344,3.175,1.149,2.037,2.43,2.231,2.106.322,2.38-1.509,3.108-2.748.6-1.019,1.409-1.568,2.507-1.082a1.529,1.529,0,0,1,.718,2.3c-.64,1.293-.013,1.513,1.166,1.566,1.936.084,3.623,0,4.351-2.29.343-1.08,1.153-2.122,2.516-1.626,1.639.6,1.128,1.877.684,3.062-.057.151.038.36.061.538,5.073.745,7.079-.147,7.1-3.56.094-12.723.048-25.449.021-38.172,0-2.33-1.358-3.525-3.6-3.73-2.181-.2-4.287-.287-5.138,2.463a1.811,1.811,0,0,1-2.62,1.321c-1.162-.534-1.151-1.528-.6-2.583.18-.345.316-.764-.13-1.04-2.66-.638-4.814-.339-5.812,2.673a1.653,1.653,0,0,1-2.254,1.023,1.529,1.529,0,0,1-.919-2.214c.157-.45.253-.923.379-1.394-2.884-.766-5.124-.483-6.223,2.625a1.644,1.644,0,0,1-2.273.957,1.308,1.308,0,0,1-.915-1.706c1.164-2.771-.879-1.988-2.219-2.175-2.221-.31-2.641,1.421-3.42,2.8-.563,1-1.39,1.566-2.516,1.036A1.569,1.569,0,0,1,28.377,4.9c.2-.437.523-.9-.023-1.321-2.455-.473-4.68-.55-5.666,2.424a1.763,1.763,0,0,1-2.4,1.277c-1.2-.437-1.306-1.392-.814-2.493a5.421,5.421,0,0,0,.239-1.12c-4-.5-4.021-.519-5.992,2.4-.55.816-1.1,1.486-2.185,1.268a1.338,1.338,0,0,1-1.18-1.792c1.132-2.8-.9-2.145-2.246-2.133-3.435.036-4.59,1.149-4.6,4.6q-.05,18.322,0,36.647c.01,3.29,1.168,4.272,4.379,4.561,2.263.205,3.659-.534,4.439-2.673A1.814,1.814,0,0,1,14.76,45.3c.751.247,1.337.942,1.042,1.633-1.35,3.158,1.124,2.041,2.415,2.248,1.733.278,2.229-1.021,2.83-2.208.519-1.023,1.1-2.108,2.5-1.71,1.476.417,1.411,1.511.9,2.673-.45,1.019.082,1.224.961,1.247,1.949.054,3.837.264,4.68-2.25.479-1.427,1.612-2.587,3.236-1.153,1.026.906-.163,2.062-.027,3.1C37.216,49.476,37.241,49.492,39.2,46.531Z" transform="translate(0 0)" fill="#020000"></path><path id="Path_240" data-name="Path 240" d="M190.019,152.285q4.417,0,8.833,0c1.3,0,2.6.167,2.524,1.869-.067,1.478-1.281,1.639-2.457,1.641q-9.139.009-18.276,0c-1.3,0-2.6-.184-2.524-1.877.067-1.482,1.279-1.63,2.457-1.633Q185.3,152.278,190.019,152.285Z" transform="translate(-140.839 -120.409)" fill="#bcbcbc"></path><path id="Path_241" data-name="Path 241" d="M189.72,121.4c-3.041,0-6.082,0-9.123,0-1.164,0-2.38-.033-2.5-1.547s1.047-1.873,2.223-1.88q9.428-.053,18.854,0c1.18.006,2.317.379,2.191,1.9-.107,1.308-1.118,1.524-2.221,1.52Q194.434,121.393,189.72,121.4Z" transform="translate(-140.82 -93.265)" fill="#bcbcbc"></path><path id="Path_242" data-name="Path 242" d="M184.01,85.683c-1.421,0-2.844.059-4.261-.019a1.711,1.711,0,1,1,.044-3.42c2.941-.061,5.886-.052,8.828-.013a1.718,1.718,0,0,1,1.894,1.6c.071,1.245-.793,1.81-1.94,1.85-1.52.052-3.043.013-4.567.013C184.01,85.693,184.01,85.689,184.01,85.683Z" transform="translate(-140.763 -64.994)" fill="#bcbcbc"></path><path id="Path_243" data-name="Path 243" d="M59.282,89.631c-2.44,0-4.881-.013-7.319,0-1.3.008-2.275-.465-2.252-1.873.069-4.28-1.059-8.929,3.246-12.045,1.088-.789.247-1.36-.021-2.034-1.346-3.395-.653-6.476,1.911-8.493a7.529,7.529,0,0,1,8.814-.121c2.717,2,3.518,5.107,1.961,8.686-.523,1.2-.228,1.651.626,2.438,2.461,2.269,3.826,9.343,2.585,12.269-.456,1.074-1.294,1.17-2.231,1.172C64.161,89.637,61.723,89.633,59.282,89.631Zm3.15-3.23c2.579.4,3.273-.63,3.146-3.15-.234-4.615-2.541-6.4-7.916-5.689-3.531.465-4.732,2.38-4.466,6.936.209,3.608,2.939,1.183,4.376,1.84a4.751,4.751,0,0,0,1.813.038A19.992,19.992,0,0,1,62.432,86.4ZM59.4,74.144a3.55,3.55,0,1,0,.052-7.1c-2.185-.063-3.537,1.235-3.778,3.55C55.89,72.845,57.173,74.144,59.4,74.144Z" transform="translate(-39.243 -50.367)" fill="#ff0101"></path></g></svg>