<svg xmlns="http://www.w3.org/2000/svg" id="Group_469" data-name="Group 469" width="75.096" height="101.312" viewBox="0 0 75.096 101.312"><path id="Path_302" data-name="Path 302" d="M51.032,0H74.949c.144.492.177,23.332.033,24.084a4.546,4.546,0,0,1-.525.056q-3.56.007-7.125,0c-.595,0-.646-.046-.646-.65,0-2.522,0-5.044,0-7.567v-.711c-.353,0-.474.251-.641.413q-3.909,3.895-7.808,7.8c-.636.636-1.287,1.263-1.942,1.9,6.164,9.462,7.381,19.393,3.238,29.895C54.934,65.522,47,71.63,35.982,73.887V83.08c.274.014.516.037.762.037,2.606,0,5.212,0,7.817,0h.376c.595.014.636.042.636.655q.007,3.783,0,7.567c0,.687-.023.715-.711.715-2.648,0-5.3,0-7.943,0h-.938c-.014.32-.037.562-.037.8,0,2.5,0,5,0,7.506,0,.149,0,.293,0,.441-.023.4-.088.483-.483.492-.548.019-1.092,0-1.64,0q-3,0-5.992,0c-.242,0-.488-.037-.8-.065V92.114c-.33-.023-.595-.06-.859-.06q-3.881-.007-7.757,0c-.149,0-.293,0-.441,0-.581-.019-.622-.051-.622-.608q-.007-3.846,0-7.692c0-.595.042-.636.655-.636,2.713,0,5.421,0,8.133,0h.813a6.171,6.171,0,0,0,.07-.646q.007-3.944,0-7.882c0-.186-.028-.372-.046-.6A30.912,30.912,0,0,1,6.849,62.67a29.978,29.978,0,0,1-6.628-15.5,30.969,30.969,0,0,1,13.8-29.848A30.945,30.945,0,0,1,38.588,13.22a30.847,30.847,0,0,1,11.371,5.565C53.452,15.291,56.9,11.84,60.368,8.37c-.13-.111-.39-.046-.622-.046-2.648,0-5.3,0-7.943,0-.269,0-.534-.033-.785-.051A62.12,62.12,0,0,1,51.032,0Zm-20.1,66.144A22.893,22.893,0,1,0,8.085,43.119,22.98,22.98,0,0,0,30.929,66.144Z" transform="translate(0.021)" fill="#da9100"></path><path id="Path_303" data-name="Path 303" d="M64.7,80.14H36.672a54.757,54.757,0,0,1-.028-7.051c.246-.014.511-.042.776-.042q9.141-.007,18.283,0H63.9c.167,0,.334,0,.506,0a.325.325,0,0,1,.348.358c0,.084,0,.167,0,.251v5.927C64.751,79.75,64.719,79.913,64.7,80.14Z" transform="translate(-19.56 -39.116)" fill="#da9100"></path><path id="Path_304" data-name="Path 304" d="M36.593,105.89c-.014-.214-.037-.4-.037-.581q-.007-2.9,0-5.8c0-.664.014-.678.664-.678H64.077c.66,0,.678.019.678.669,0,1.956,0,3.911,0,5.862,0,.163-.023.33-.037.478C64.254,105.993,37.527,106.044,36.593,105.89Z" transform="translate(-19.564 -52.924)" fill="#da9100"></path></svg>