<svg xmlns="http://www.w3.org/2000/svg" width="43.408" height="43.408" viewBox="0 0 43.408 43.408"><g id="Group_471" data-name="Group 471" transform="translate(-1125.783 -4910.337)"><path id="Path_41" data-name="Path 41" d="M1182.237,3721.7h0a19.533,19.533,0,1,1-19.533-19.534A19.535,19.535,0,0,1,1182.237,3721.7Zm2.17,0h0a21.7,21.7,0,1,1-21.7-21.7A21.7,21.7,0,0,1,1184.408,3721.7Z" transform="translate(-15.217 1210.337)" fill="#020000" fill-rule="evenodd"></path><path id="Path_42" data-name="Path 42" d="M1171.318,3710.242a1.738,1.738,0,0,1,.532,1.28v15.9a1.747,1.747,0,0,1-.543,1.281,1.78,1.78,0,0,1-1.291.532,1.823,1.823,0,0,1-1.291-.532,1.707,1.707,0,0,1-.543-1.281v-6.109h-1.812v6.109a1.816,1.816,0,0,1-1.834,1.813,1.812,1.812,0,0,1-1.3-.532,1.738,1.738,0,0,1-.532-1.281v-6.109h-1.812v6.1a1.811,1.811,0,0,1-.532,1.3,1.769,1.769,0,0,1-1.3.531,1.811,1.811,0,0,1-1.3-.531,1.769,1.769,0,0,1-.532-1.3V3721.3h-4.884a.594.594,0,0,1-.608-.607v-6.718a1.747,1.747,0,0,1,.543-1.28,1.788,1.788,0,0,1,1.291-.542,1.834,1.834,0,0,1,1.812,1.823v3.071h1.834v-5.513a1.75,1.75,0,0,1,.543-1.281,1.808,1.808,0,0,1,2.583,0,1.708,1.708,0,0,1,.542,1.281v5.513h1.812v-5.513a1.739,1.739,0,0,1,.532-1.281,1.834,1.834,0,0,1,2.6,0,1.739,1.739,0,0,1,.532,1.281v5.513h1.812v-5.513a1.749,1.749,0,0,1,.543-1.281,1.79,1.79,0,0,1,1.291-.542A1.7,1.7,0,0,1,1171.318,3710.242Zm-.695,1.27a.608.608,0,1,0-1.215,0v6.109a.593.593,0,0,1-.608.607h-3.049a.623.623,0,0,1-.445-.173.591.591,0,0,1-.184-.434v-6.109a.608.608,0,1,0-1.216,0v6.109a.593.593,0,0,1-.608.607h-3.049a.593.593,0,0,1-.608-.607v-6.109a.614.614,0,0,0-1.042-.434.59.59,0,0,0-.185.434v6.109a.593.593,0,0,1-.608.607h-3.049a.593.593,0,0,1-.608-.607v-3.657a.622.622,0,0,0-.174-.445.591.591,0,0,0-.434-.185.58.58,0,0,0-.434.174.606.606,0,0,0-.174.445v6.1h4.884a.59.59,0,0,1,.434.184.606.606,0,0,1,.174.445v6.717a.608.608,0,1,0,1.216,0v-6.717a.622.622,0,0,1,.174-.445.589.589,0,0,1,.434-.184h3.05a.634.634,0,0,1,.445.184.616.616,0,0,1,.185.445v6.717a.608.608,0,1,0,1.215,0v-6.717a.623.623,0,0,1,.174-.445.589.589,0,0,1,.434-.184h3.049a.59.59,0,0,1,.434.184.606.606,0,0,1,.174.445v6.717a.593.593,0,0,0,.608.607.624.624,0,0,0,.445-.173.59.59,0,0,0,.184-.434Z" transform="translate(-14.303 1211.164)" fill="#020000"></path></g></svg>