<svg xmlns="http://www.w3.org/2000/svg" width="43.408" height="43.408" viewBox="0 0 43.408 43.408"><g id="Group_470" data-name="Group 470" transform="translate(-1185.468 -4910.337)"><path id="Path_43" data-name="Path 43" d="M1237.237,3721.7h0a19.534,19.534,0,1,1-19.534-19.534A19.535,19.535,0,0,1,1237.237,3721.7Zm2.17,0h0a21.7,21.7,0,1,1-21.7-21.7A21.7,21.7,0,0,1,1239.408,3721.7Z" transform="translate(-10.532 1210.337)" fill="#020000" fill-rule="evenodd"></path><path id="Path_44" data-name="Path 44" d="M1226.512,3710.471a.971.971,0,0,1-.022.434l-1.91,7.694v9.647a.978.978,0,0,1-.282.695.959.959,0,0,1-.695.282h-15.627a.972.972,0,0,1-.684-.282.928.928,0,0,1-.293-.695v-9.767a.872.872,0,0,1,.293-.684l7.813-7.813a.9.9,0,0,1,.684-.293h9.767a1.091,1.091,0,0,1,.434.1.868.868,0,0,1,.347.271A1.147,1.147,0,0,1,1226.512,3710.471Zm-.955.207h-9.767l-7.813,7.813H1223.6Zm-1.953,8.79h-15.627v8.79H1223.6Zm-3.907,1.953h2.93v-.977h-2.93Z" transform="translate(-9.594 1211.162)" fill="#020000"></path></g></svg>