<svg xmlns="http://www.w3.org/2000/svg" width="74.223" height="74.236" viewBox="0 0 74.223 74.236"><g id="Group_381" data-name="Group 381" transform="translate(0.01)"><path id="Path_236" data-name="Path 236" d="M57.53,0c1.5.363,3.014.666,4.493,1.1A26.479,26.479,0,0,1,77.972,38.7c-.835,1.6-1.745,2.591-3.7,2.239a17.793,17.793,0,0,0-2.916-.026C78.5,30.28,78.653,20.067,69.731,10.7,63.434,4.1,53.416,2.666,45.138,6.589A21.475,21.475,0,0,0,34.3,17.858a22.291,22.291,0,0,0-.76,15.376c-.213.1-.27.15-.326.15-5.1.056-4.414,1.022-5-4.369A26.317,26.317,0,0,1,50.181.352,6.562,6.562,0,0,0,51.2,0Z" transform="translate(-17.559)" fill="#bcbcbc"></path><path id="Path_237" data-name="Path 237" d="M6.429,124.734c.052-.176.052-.247.09-.292,2.624-3.137,2.617-3.126,6.26-1.359,4.852,2.351,9.7,4.714,14.594,6.971a3.534,3.534,0,0,0,2.55.109q18.673-7.862,37.285-15.874c2.422-1.037,3.209-3.051,1.951-4.837-.951-1.352-2.336-1.632-4.313-.82-8.712,3.575-17.461,7.072-26.106,10.8a6.069,6.069,0,0,1-6.02-.247c-3.605-2.04-7.36-3.819-11.239-5.8.659-1.333,1.273-2.576,1.969-3.98,3.373,1.715,6.69,3.238,9.839,5.058a4.761,4.761,0,0,0,5.339.142,19.965,19.965,0,0,1,2.34-1.018,17.576,17.576,0,0,0-6.78-7.488,26.2,26.2,0,0,0-29.079.79,1.773,1.773,0,0,1-2.306.228A29.472,29.472,0,0,0-.01,105.7c9.483-11.131,35.806-11.857,45.3,6.125l10.419-4.261c2.636-1.078,5.26-2.2,7.915-3.235,4.137-1.614,8.285.037,9.944,3.9a7.416,7.416,0,0,1-4.178,9.97q-19.8,8.536-39.651,16.96a2.585,2.585,0,0,1-1.879.1c-6.994-3.328-13.957-6.728-20.921-10.112A3.369,3.369,0,0,1,6.429,124.734Z" transform="translate(0 -61.152)" fill="#020000"></path><path id="Path_238" data-name="Path 238" d="M77.966,64.408c-2.8-2.808-5.679-5.691-8.506-8.521.846-.827,1.808-1.771,3.033-2.965,1.591,1.834,3.317,3.83,5.1,5.889,3.882-3.9,7.327-7.357,10.906-10.951,1.037,1.254,1.932,2.336,2.778,3.355C86.974,55.483,82.447,59.968,77.966,64.408Z" transform="translate(-43.461 -29.942)" fill="#ff0101"></path></g></svg>