<svg xmlns="http://www.w3.org/2000/svg" id="Group_471" data-name="Group 471" width="88" height="89.739" viewBox="0 0 88 89.739"><path id="Path_313" data-name="Path 313" d="M130.094,178.753a5.161,5.161,0,0,0-2.246-.666c-11.741-2.8-20.143-13.819-19.571-25.654a25.437,25.437,0,0,1,21.984-24.212,24.755,24.755,0,0,1,20.28,6.062c.916.788,1.324.633,2.036-.128,1.488-1.589,3.083-3.08,4.6-4.638.484-.5.809-.752,1.424-.091,1.379,1.482,2.824,2.909,4.3,4.3.627.587.453.919-.07,1.427-1.893,1.832-3.719,3.734-5.624,5.554a1.441,1.441,0,0,0-.353,1.954,25.353,25.353,0,0,1-16.744,35.316,16.054,16.054,0,0,0-3.335.779Zm19.519-30.444Q143.3,154.581,137,160.85c-1.911,1.893-4.105,2.012-5.913.265-2.407-2.322-4.732-4.726-7.127-7.063-.511-.5-.566-.791-.015-1.312,1.476-1.388,2.918-2.815,4.309-4.291.584-.621.922-.49,1.433.052,1.077,1.141,2.258,2.188,3.317,3.344.639.7,1.032.788,1.762.046q5.053-5.158,10.24-10.183c.782-.758.794-1.172-.061-1.838a17.213,17.213,0,0,0-15.125-3.527,17.476,17.476,0,0,0,7.456,34.145c10.222-2,16.619-13.074,13.016-22.794C149.981,147.977,149.789,148.132,149.613,148.309Z" transform="translate(-75.307 -89.013)" fill="#898686"></path><path id="Path_314" data-name="Path 314" d="M18.523,79.2c-2.635,0-5.271.085-7.9-.018a10.594,10.594,0,0,1-10.56-11c.037-4.346-.368-8.71.517-13.028A28.935,28.935,0,0,1,15.121,35.2c.974-.563,1.226-.785.292-1.719a19.231,19.231,0,0,1-3.981-21.987A19.713,19.713,0,0,1,30.69.026C40.236.632,48.432,9,49.047,18.4A19.916,19.916,0,0,1,32.625,39.165c-2.447.423-4.951.173-7.407.636A21.442,21.442,0,0,0,7.988,60.017c-.064,2.684-.037,5.371-.012,8.055.018,2.109,1.08,3.177,3.189,3.189,4.458.024,8.917.03,13.375-.006.889-.006,1.366.189,1.555,1.156a21.761,21.761,0,0,0,1.939,5.569c.551,1.092.158,1.281-.849,1.272-2.888-.024-5.776-.009-8.664-.009A.162.162,0,0,0,18.523,79.2Zm22.59-59.519A11.755,11.755,0,0,0,17.6,19.476a11.755,11.755,0,1,0,23.509.207Z" transform="translate(0.001 0.014)" fill="#898686"></path><path id="Path_315" data-name="Path 315" d="M199.639,39v-3.85h-4.3V29.323h-4.982V33.9c0,.42,0,.834.009,1.248h-3.156L184.42,29.32h-6.1v5.828H174.04V39h4.282v3.539H174.04v3.85h4.282v4.361H183.3V46.392h4.337l2.082,4.361h5.621V46.392h4.3V42.54h-4.3V39Zm-16.449,0h1.032c.508,1.208,1.059,2.438,1.579,3.539h-2.523C183.258,41.289,183.227,40.1,183.191,39Zm7.553,3.539h-.277c-.423-1.138-.925-2.374-1.436-3.539h1.461C190.562,40.276,190.647,41.468,190.744,42.54Z" transform="translate(-121.076 -20.393)" fill="#898686"></path></svg>