<svg xmlns="http://www.w3.org/2000/svg" width="85.646" height="57.686" viewBox="0 0 85.646 57.686"><g id="Group_384" data-name="Group 384" transform="translate(0 -0.001)"><path id="Path_248" data-name="Path 248" d="M42.13,98.576c-1.411-.121-3.435.363-3.421-1.81.012-2.13,2-1.777,3.447-1.789,1.464-.012,3.437-.3,3.437,1.805C45.594,98.929,43.573,98.465,42.13,98.576Z" transform="translate(-29.527 -72.432)" fill="#ff0101"></path><path id="Path_249" data-name="Path 249" d="M42.141,124.41c-1.454-.083-3.428.263-3.421-1.857.007-2.218,2.064-1.691,3.454-1.7s3.449-.47,3.421,1.744C45.571,124.7,43.595,124.331,42.141,124.41Z" transform="translate(-29.535 -92.145)" fill="#ff0101"></path><path id="Path_250" data-name="Path 250" d="M325.462,68.83c1.262.114,2.133.681,1.936,1.732-.425,2.275-2.51,2.832-4.317,3.385a1.444,1.444,0,0,1-1.755-1.637C321.724,69.995,324.03,69.788,325.462,68.83Z" transform="translate(-245.088 -52.502)" fill="#bcbcbc"></path><path id="Path_251" data-name="Path 251" d="M336.065,101.433c-1.549.178-2.735-.3-2.586-1.713.23-2.175,2.289-1.9,3.793-2.18,1.343-.254,2.889-.078,2.726,1.656C339.768,101.637,337.308,100.778,336.065,101.433Z" transform="translate(-254.364 -74.33)" fill="#bcbcbc"></path><path id="Path_252" data-name="Path 252" d="M335.622,131.814c-1.314-.621-3.769.2-3.9-2.374-.078-1.549,1.336-1.819,2.56-1.57,1.48.3,3.608-.195,3.862,2.125C338.312,131.551,337.088,131.873,335.622,131.814Z" transform="translate(-253.03 -97.474)" fill="#bcbcbc"></path><path id="Path_253" data-name="Path 253" d="M0,4.261C1.985,1.088,4.837-.053,8.568,0c9.832.149,19.67.1,29.5.031A22.477,22.477,0,0,1,52.144,4.622,248.9,248.9,0,0,1,72.286,22.1a9.737,9.737,0,0,1,3.3,6.78c.2,4.673.147,9.36.142,14.041a3.439,3.439,0,0,1-1.191,2.842c-2.882,1.959-4.227,4.991-6.068,7.75-2.6,3.9-7.866,5.117-12.259,3.432A10.765,10.765,0,1,1,69.342,41.366c.529.887.911,1.862,1.416,2.913,1.748-.738,1.532-2.218,1.487-3.544-.109-3.257,1.338-7.4-.534-9.529-1.952-2.223-6.191-.676-9.417-.712q-15.279-.171-30.558-.009a7.39,7.39,0,0,1-7.28-4.467c-.555-1.11-1.03-2.239.306-3.077,1.416-.887,2.17.116,2.718,1.226A4.432,4.432,0,0,0,31.9,26.944c12.646-.071,25.289-.038,37.935-.052a3.714,3.714,0,0,0,.9-.218c.394-.956-.323-1.419-.776-1.841C63.362,18.691,56.829,12.479,49.525,7.155A17.952,17.952,0,0,0,38.715,3.59c-10.188,0-20.377.026-30.562-.031C5.017,3.54,3.43,4.6,3.473,8.062c.135,10.886.043,21.776.062,32.664,0,1.219-.351,2.6,1.067,3.435,1.2-.268,1.018-1.464,1.435-2.208a10.523,10.523,0,0,1,9.73-5.824,9.9,9.9,0,0,1,9.64,6.4c.866,2.154,1.929,2.74,4.1,2.645,3.973-.176,7.963-.138,11.939-.007,1.554.052,4.142-.989,4.234,1.644.095,2.723-2.519,1.76-4.066,1.8q-6.319.174-12.643,0a2.938,2.938,0,0,0-3.326,2.2,10.287,10.287,0,0,1-10.43,6.806,10.2,10.2,0,0,1-9.723-7.306c-.977-2.875-4.517-3.231-5.491-6ZM15.972,39.639a7.248,7.248,0,0,0-.607,14.484,7.249,7.249,0,1,0,.607-14.484Zm51.356,7.207A7.268,7.268,0,0,0,52.8,46.6a7.267,7.267,0,1,0,14.529.249Z" fill="#020000"></path><path id="Path_254" data-name="Path 254" d="M60.5,190.24a1.767,1.767,0,0,1,1.831,1.691,1.647,1.647,0,0,1-1.684,1.784,1.569,1.569,0,0,1-1.772-1.651A1.7,1.7,0,0,1,60.5,190.24Z" transform="translate(-44.911 -145.112)" fill="#504ea0"></path><path id="Path_255" data-name="Path 255" d="M247.524,193.8c-.987-.242-1.725-.778-1.6-1.869a1.727,1.727,0,0,1,3.444.256C249.3,193.278,248.56,193.743,247.524,193.8Z" transform="translate(-187.578 -145.182)" fill="#4e4b9f"></path></g></svg>