<svg xmlns="http://www.w3.org/2000/svg" id="Group_470" data-name="Group 470" width="101" height="101" viewBox="0 0 101 101"><path id="Path_307" data-name="Path 307" d="M150.5,45.955c-2.313,2.146-4.671,4.242-6.913,6.454a30.8,30.8,0,0,0-2.5,3.121c-3.646-3.671-6.8-6.848-9.979-10.039h3.919C137.789,28.709,121.185,11.832,100,9.964V0h5.05a7.888,7.888,0,0,0,1.379.46,44.883,44.883,0,0,1,37.557,33.734c.894,3.626,1.237,7.383,1.863,11.256H150.5C150.5,45.617,150.5,45.788,150.5,45.955Z" transform="translate(-49.5 0)" fill="#42aa24"></path><path id="Path_308" data-name="Path 308" d="M0,99.838c2.313-2.146,4.646-4.267,6.924-6.444,1.02-.975,1.939-2.06,2.727-2.9,3.419,3.439,6.575,6.615,9.757,9.812H15.473c-2.783,16.761,13.8,33.623,35.022,35.527v9.964h-5.05a7.772,7.772,0,0,0-1.379-.465A44.871,44.871,0,0,1,6.514,111.6c-.9-3.626-1.237-7.388-1.863-11.262H0C0,100.176,0,100,0,99.838Z" transform="translate(0 -44.793)" fill="#42aa24"></path><path id="Path_311" data-name="Path 311" d="M85.125,70.288c3.565,0,6.5.066,9.438-.02A5.247,5.247,0,0,1,99.7,73.212c1.156,2.086.454,3.909-.813,5.611q-7.317,9.8-14.69,19.554c-1.924,2.53-4.742,2.884-7.343,1.071-2.146-1.495-2.576-4.459-.8-6.954,2.434-3.424,5.025-6.737,7.54-10.105.389-.52.747-1.066,1.4-2-3.383,0-6.363-.066-9.337.02a5.259,5.259,0,0,1-5.146-2.939c-1.151-2.081-.48-3.909.793-5.611,4.828-6.464,9.651-12.933,14.534-19.357A5.263,5.263,0,0,1,93.2,51.138c2.166,1.651,2.5,4.929.657,7.459C91.1,62.374,88.261,66.1,85.125,70.288Z" transform="translate(-34.614 -24.838)" fill="#42aa24"></path></svg>