<svg xmlns="http://www.w3.org/2000/svg" width="61.806" height="62.731" viewBox="0 0 61.806 62.731"><g id="Group_385" data-name="Group 385" transform="translate(0 -0.001)"><path id="Path_256" data-name="Path 256" d="M0,.451A4.715,4.715,0,0,1,3.133.223c8.506,2.06,17.038,4,25.55,6.037a9.277,9.277,0,0,0,4.472-.024c8.51-2.041,17.036-4.011,25.558-6,2.514-.587,3.038-.2,3.04,2.384.014,11.219-.043,22.439.053,33.658.016,1.944-.727,2.761-2.479,3.087-1.654.308-3.282.746-4.932,1.074-1.025.2-1.927-.086-2.129-1.222-.175-.99.5-1.532,1.4-1.8.081-.024.169-.02.249-.047,1.5-.515,3.74-.183,4.388-1.416.74-1.4.326-3.439.33-5.2.018-9.015.008-18.032.008-27.28-8.475,2-16.732,3.961-25,5.867-1.092.253-1.241.839-1.218,1.785.049,2.023,0,4.048.014,6.073.008,1.088-.432,1.876-1.563,1.87s-1.554-.807-1.546-1.889c.016-2.025-.039-4.05.016-6.073.026-.962-.163-1.524-1.237-1.77C19.835,7.437,11.58,5.475,3.121,3.483c0,10.6.01,20.974-.016,31.344,0,1,.247,1.559,1.328,1.713a28.883,28.883,0,0,1,2.936.733c1.047.265,1.673.862,1.375,1.995a1.467,1.467,0,0,1-1.982,1.07C4.511,39.7,2.117,39.547,0,38.427Z" transform="translate(0 0)" fill="#020000"></path><path id="Path_257" data-name="Path 257" d="M50.284,254.7c-3.908-2.49-7.613-5.2-10.046-9.286a14.086,14.086,0,0,1-1.074-1.986,1.549,1.549,0,0,1,.7-2.155,1.385,1.385,0,0,1,1.95.621,24.735,24.735,0,0,0,10.095,9.916c1.479.795.837,1.954-.106,2.891Z" transform="translate(-31.048 -191.968)" fill="#bcbcbc"></path><path id="Path_258" data-name="Path 258" d="M198.261,86.283c3-.073,12.014,8.72,12.1,11.79a1.328,1.328,0,0,1-1.008,1.532,1.73,1.73,0,0,1-2.084-1.006,20.978,20.978,0,0,0-5.623-6.748c-1.328-1.025-2.811-1.844-4.2-2.791a1.438,1.438,0,0,1-.725-1.726A1.457,1.457,0,0,1,198.261,86.283Z" transform="translate(-156.573 -68.702)" fill="#bcbcbc"></path><path id="Path_259" data-name="Path 259" d="M78.232,106.43a18.458,18.458,0,1,1-18.682,18.3A18.494,18.494,0,0,1,78.232,106.43Zm12.4,16.824c3.516,0,3.563-.069,2.349-3.463-.029-.079-.035-.165-.065-.244a15.672,15.672,0,0,0-29.62,1.112c-.511,1.726-.634,2.905,1.834,2.636a34.538,34.538,0,0,1,5.548-.016,3.216,3.216,0,0,0,3.27-1.6c1.809-2.661,6.126-3.254,7.876-.738,1.864,2.681,4.111,2.286,6.538,2.312Zm-26.218,3.129c-1.33-.073-1.506.546-1.343,1.705.738,5.26,6.884,11.244,12.173,11.778.772.077,1.667.236,1.483-.984-.558-3.683,1.777-7.968-2.724-10.9-1.182-.768-1.99-1.752-3.527-1.607-.835.077-1.683.014-2.526.016C66.77,126.4,65.589,126.446,64.413,126.383ZM79.84,138.715c-.047,1.031.377,1.247,1.349,1.186,5.266-.328,12.112-7.041,12.383-12.153.043-.809-.055-1.465-.968-1.318-3.69.6-8.163-1.974-10.883,2.642a1.147,1.147,0,0,1-.621.42c-1.241.381-1.322,1.32-1.259,2.4.057,1.008.012,2.021.014,3.034C79.852,136.187,79.9,137.454,79.84,138.715Zm.7-13.711a2.045,2.045,0,0,0-2.035-2.345,2.079,2.079,0,0,0-2.451,2.186c-.041,1.351.862,2.076,2.192,2.312A2.252,2.252,0,0,0,80.536,125Z" transform="translate(-47.418 -84.746)" fill="#ff0101"></path></g></svg>