<svg xmlns="http://www.w3.org/2000/svg" id="Group_383" data-name="Group 383" width="59.764" height="59.735" viewBox="0 0 59.764 59.735"><path id="Path_244" data-name="Path 244" d="M29.928,59.735A29.868,29.868,0,1,1,59.764,30.013,29.863,29.863,0,0,1,29.928,59.735ZM3.043,29.612A26.84,26.84,0,1,0,30.072,3.043,26.777,26.777,0,0,0,3.043,29.612Z" transform="translate(0 0)" fill="#020000"></path><path id="Path_245" data-name="Path 245" d="M137.654,41.053a1.445,1.445,0,0,1-1.131,1.7c-1.2.29-1.641-.539-1.906-1.554a21.435,21.435,0,0,0-5.04-9.422,21.041,21.041,0,0,0-9.989-6.044c-1.083-.3-2.691-.426-2.146-2.189.454-1.472,1.723-1.058,2.817-.739q13.313,3.858,17.11,17.181C137.462,40.317,137.547,40.65,137.654,41.053Z" transform="translate(-84.242 -16.153)" fill="#ff0101"></path><path id="Path_246" data-name="Path 246" d="M40.8,137.469c-7.691-.809-17.449-10.607-18.179-18.253-.1-1.052.271-1.749,1.2-1.949,1.032-.223,1.52.508,1.763,1.444a21.794,21.794,0,0,0,5.153,9.648A21.456,21.456,0,0,0,41.246,134.5c1,.259,1.892.666,1.613,1.873A1.509,1.509,0,0,1,40.8,137.469Z" transform="translate(-16.228 -84.166)" fill="#ff0101"></path><path id="Path_247" data-name="Path 247" d="M78.9,61.319A17.5,17.5,0,1,1,61.347,43.87,17.568,17.568,0,0,1,78.9,61.319ZM63.789,54.127c1.038-2,3.57-4.05,2.84-5.9-.623-1.577-3.782-1.351-5.945-1.286-5.057.149-5.44.784-2.9,5.091.764,1.3,1.075,3.339,3.466,2.609C62.055,54.4,63.2,55.261,63.789,54.127Zm-11.814,5.7c3.824,0,5.308-2.538,3.41-5.829-.556-.965-1.19-1.892-1.653-2.9-.651-1.419-1.311-1.2-2.253-.271a14.607,14.607,0,0,0-4.436,9ZM74.5,55.295a15,15,0,0,0-1.148-2c-2.775-4.134-3.2-4.12-5.649.144-.3.519-.561,1.063-.9,1.557-.578.849-.417,1.469-.011,2.479,1,2.487,2.758,2.674,4.462,2.358C76.4,59.83,76.528,59.632,74.5,55.295ZM49.107,62.887c-2.1-.3-2.208.626-1.664,2.307a16.177,16.177,0,0,0,2.679,5.215c2.465,3.094,2.533,3.085,4.526-.367.471-.815.905-1.655,1.421-2.439.527-.8.319-1.362-.042-2.256-.965-2.4-2.64-2.829-4.428-2.442A21.184,21.184,0,0,1,49.107,62.887ZM70.49,62.9c-3.438.008-4.921,2.648-3.187,5.666.6,1.038,1.258,2.045,1.785,3.119.575,1.173,1.148,1.258,2.084.347A14.483,14.483,0,0,0,75.728,62.9C73.906,62.9,72.2,62.9,70.49,62.9Zm-8.105,12.88c4.769-.206,5.107-.807,2.758-4.887-.127-.223-.248-.448-.378-.668-1.856-3.2-4.921-3.26-6.673-.048-.79,1.444-2.795,3.116-2.005,4.329.922,1.413,3.362,1.32,5.268,1.28C61.7,75.784,62.041,75.8,62.385,75.781ZM57.718,61.474a3.677,3.677,0,1,0,3.63-3.785A3.593,3.593,0,0,0,57.718,61.474Zm3.666-1.608a1.5,1.5,0,1,0,.152,2.987c.866-.065,1.334-.674,1.4-1.7A1.557,1.557,0,0,0,61.384,59.866Z" transform="translate(-31.512 -31.498)" fill="#bcbcbc"></path></svg>