<svg xmlns="http://www.w3.org/2000/svg" width="68.685" height="69.132" viewBox="0 0 68.685 69.132"><g id="Group_471" data-name="Group 471" transform="translate(-931 -2447)"><g id="Group_470" data-name="Group 470"><path id="Path_233" data-name="Path 233" d="M59.439,27.245c6.759,10.836,6.7,29.062-6.888,40.631A31.9,31.9,0,0,1,9.824,66.468,32.017,32.017,0,0,1,48.141,15.7c-1.705,1.519-3.2,3.029-4.9,4.268a3.051,3.051,0,0,1-2.345-.124A25.251,25.251,0,1,0,55.135,33.973a2.088,2.088,0,0,1,.56-2.682C56.96,30.061,58.106,28.7,59.439,27.245Z" transform="translate(931 2440.726)" fill="#020000"></path><path id="Path_234" data-name="Path 234" d="M66.107,53.818c3.078,6.724-.018,16.37-6.839,21.312A18.993,18.993,0,0,1,35.282,73.47,19.209,19.209,0,0,1,32.3,49.337c4.672-7.283,14.22-10.7,21.876-7.572-2.594,2.021-3.841,5.076-7.812,5.458-6.617.635-10.983,6.653-10.6,13.554.329,5.88,5.511,11.014,11.564,11.458A12.6,12.6,0,0,0,60.623,61.754C61.3,58.135,62.173,56.874,66.107,53.818Z" transform="translate(914.694 2424.429)" fill="#ff0101"></path></g><path id="Path_235" data-name="Path 235" d="M92.5,0c.355,2.474.471,4.17.888,5.791a2.558,2.558,0,0,0,1.545,1.585,51.492,51.492,0,0,0,5.578.746c-1.612,1.621-2.967,2.989-4.326,4.352-1.146,1.15-2.345,2.252-3.42,3.464a3.306,3.306,0,0,1-3.455,1.292,2.743,2.743,0,0,0-2.021.853C81.941,23.377,76.616,28.693,71.38,34.1a4.73,4.73,0,0,0-1,2.882A6.57,6.57,0,0,1,57.5,38.872a6.564,6.564,0,0,1,3.975-7.941,2.447,2.447,0,0,1,1.257-.324c2.74.684,4.13-1.23,5.724-2.842,4.672-4.721,9.388-9.393,14.034-14.14A3.285,3.285,0,0,0,83.5,11.413a4.048,4.048,0,0,1,1.488-3.655C87.412,5.4,89.7,2.909,92.5,0Z" transform="translate(899.172 2447)" fill="#bcbcbc"></path></g></svg>