<svg xmlns="http://www.w3.org/2000/svg" width="43.408" height="43.408" viewBox="0 0 43.408 43.408"><g id="Group_469" data-name="Group 469" transform="translate(-1066.097 -4910.337)"><path id="Path_39" data-name="Path 39" d="M1127.237,3721.7h0a19.533,19.533,0,1,1-19.533-19.534A19.535,19.535,0,0,1,1127.237,3721.7Zm2.17,0h0a21.7,21.7,0,1,1-21.7-21.7A21.7,21.7,0,0,1,1129.408,3721.7Z" transform="translate(-19.903 1210.337)" fill="#020000" fill-rule="evenodd"></path><path id="Path_40" data-name="Path 40" d="M1114.989,3724.989v.142a6.014,6.014,0,0,1-.2,1.834.66.66,0,0,1-.271.336,10.116,10.116,0,0,1-2.29,1.031,17.109,17.109,0,0,1-5.567.9,18.2,18.2,0,0,1-3.266-.293,16.082,16.082,0,0,1-2.442-.641,10.352,10.352,0,0,1-1.563-.662,3.228,3.228,0,0,1-.586-.337.5.5,0,0,1-.271-.336,5.587,5.587,0,0,1-.217-1.833v-.152a5.435,5.435,0,0,1,.271-1.758,2.584,2.584,0,0,1,1.639-1.617.083.083,0,0,0,.054-.021,11.153,11.153,0,0,0,3.18-1.421l.054-.044a.663.663,0,0,1,.532-.13.749.749,0,0,1,.586.846.74.74,0,0,1-.293.445h-.022a9.076,9.076,0,0,1-1.324.781,12.8,12.8,0,0,1-2.344.9,1.223,1.223,0,0,0-.76.8,5,5,0,0,0-.174,1.248v.055l-.022.043a8.81,8.81,0,0,0,.076,1.118,11.282,11.282,0,0,0,2.366.955,16.27,16.27,0,0,0,4.514.629,15.866,15.866,0,0,0,4.515-.629,11.974,11.974,0,0,0,2.322-.955,5.775,5.775,0,0,0,.076-1.1.291.291,0,0,1-.022-.12,4.832,4.832,0,0,0-.152-1.248,1.246,1.246,0,0,0-.76-.8,12.167,12.167,0,0,1-3.614-1.639l-.076-.043a.733.733,0,0,1-.282-.456.722.722,0,0,1,.119-.532.655.655,0,0,1,.456-.293.705.705,0,0,1,.532.108h.022a4.5,4.5,0,0,0,.445.293,12.879,12.879,0,0,0,1.15.608,9.153,9.153,0,0,0,1.617.586h.022c.011,0,.022.011.044.022a2.542,2.542,0,0,1,1.638,1.606,5.146,5.146,0,0,1,.271,1.758v.011Zm-8.4-4.6a3.922,3.922,0,0,1-2.93-1.269,4.785,4.785,0,0,1-1.031-2.03,7.943,7.943,0,0,1-.293-1.975,6.711,6.711,0,0,1,.043-1.1,4.236,4.236,0,0,1,2.029-3.765,4.411,4.411,0,0,1,2.225-.543h.076a4.32,4.32,0,0,1,2.225.564,4.238,4.238,0,0,1,2.008,3.754,6.552,6.552,0,0,1,.043,1.075,8.283,8.283,0,0,1-.293,2,4.922,4.922,0,0,1-1.031,2.03,3.958,3.958,0,0,1-2.93,1.27h-.142Zm-2.767-4.558a4.2,4.2,0,0,0,.9,2.322,2.42,2.42,0,0,0,1.91.8h.043a2.454,2.454,0,0,0,1.932-.814,4.31,4.31,0,0,0,.9-2.409,7.066,7.066,0,0,0,.022-1.584v-.054a3.089,3.089,0,0,0-1-2.387,2.833,2.833,0,0,0-1.856-.586h-.043a2.932,2.932,0,0,0-1.758.51,3.073,3.073,0,0,0-1.074,2.463l-.022.043v.043a8.273,8.273,0,0,0,.043,1.649Z" transform="translate(-18.853 1211.164)" fill="#020000"></path></g></svg>