<svg id="Layer_1" data-name="Layer 1" xmlns="http://www.w3.org/2000/svg" viewBox="0 0 554.73 257.05"><title>logos</title><path d="M74.21,45.9H95.49v87.51A42.53,42.53,0,0,0,98,148.78c5.17,13.46,14.91,21.08,29.33,22.41a33.21,33.21,0,0,0,24.9-7.48c6.35-5.18,10.11-12,12-19.9A46.6,46.6,0,0,0,165.36,133V46.1c1.31-.36,19.5-.41,21.23-.09V187.77c-1.14.33-19.06.4-21,0V175c-.69.61-1.12,1-1.53,1.36A50,50,0,0,1,134.74,190a55.44,55.44,0,0,1-31.86-5.29c-12.35-6.21-20.67-16-25.31-29a61,61,0,0,1-3.44-20.55q-.06-43.89,0-87.78C74.12,46.94,74.17,46.47,74.21,45.9Z"/><path d="M222.82,187.94H202.65v-142H223V97.49c.71-.62,1.13-1,1.53-1.34a50.44,50.44,0,0,1,24-12.71,54,54,0,0,1,62.78,35.26c9.78,28.8-5.29,59.49-33.83,68.83-19.16,6.27-36.81,3-52.33-10.26-.69-.59-1.35-1.19-2-1.78,0,0-.1,0-.33.08ZM294,135.45c-.1-1-.21-2.83-.48-4.67a35.64,35.64,0,1,0-27.67,40.78C282.34,167.93,294,153.28,294,135.45Z"/><path d="M427.25,143H343.42c.42,7.86,6.94,20.34,18.94,26A36,36,0,0,0,387,171.22c8.49-2.09,15-7.09,20.34-14.07l14.82,11c-.52.67-.95,1.26-1.41,1.83-8.89,10.84-20.22,17.54-34.09,19.62s-27.23-.12-39.3-7.67c-13.55-8.47-21.66-20.75-24.18-36.52s1-30.23,10.88-42.85a50.67,50.67,0,0,1,35.14-19.7c13.43-1.56,25.9,1.19,36.94,9.2,10.85,7.87,17.21,18.67,20,31.67,1.33,6.14,1.34,12.37,1.25,18.61A3.89,3.89,0,0,1,427.25,143Zm-83.53-16.38c3.34.31,61.63.17,62.81-.14C404,113,392.07,100,374.58,100.31,356.27,100.68,345.74,115.26,343.72,126.57Z"/><path d="M490.94,102.71c-2.67,0-5.17.05-7.67,0-12.48-.25-20.81,7.87-23.19,19a38.7,38.7,0,0,0-.73,8.1q0,28.07,0,56.11v2H438.89V84.5h20.17V96.87c.48-.53.74-.75.93-1a26.92,26.92,0,0,1,21.3-12.09c3-.19,6-.12,8.94-.16a3.27,3.27,0,0,1,.71.12Z"/></svg>