<svg id="Layer_1" data-name="Layer 1" xmlns="http://www.w3.org/2000/svg" viewBox="0 0 554.73 226.77"><defs><style>.cls-1{fill:#2f98d0;}.cls-2{fill:#444;}.cls-3{fill:#454444;}.cls-4{fill:#3199d0;}.cls-5{fill:#3b9ed2;}</style></defs><title>logos</title><path class="cls-1" d="M80.46,143.12A35.07,35.07,0,0,1,63.91,77c2.33-1.22,3.47-1.22,4,1.68a84.85,84.85,0,0,0,2.68,10.16c.68,2,.39,3.1-1.44,4.42a18.33,18.33,0,0,0-5.67,22.86,18.83,18.83,0,0,0,35.75-9c-.46-9.18-7.46-16.48-17.1-17.65-1.51-.19-2.33-.56-2.7-2.1-1-4.09-2-8.17-3.24-12.2-.5-1.65-.13-2,1.52-2.14,19.59-1.58,37.13,13.61,38,32.92C116.57,126.67,101,143.11,80.46,143.12Z"/><path class="cls-2" d="M277.67,93.85c4.71-5.88,10.15-8.26,16.83-8.13,10.13.19,17,6.22,17.45,16.46s.22,20.46.28,30.69c0,.3.1.75-.06.88-2.4,2.05-5.26.51-7.88.92-1.66.26-1.32-1.1-1.32-2,0-7.73,0-15.46,0-23.18,0-1.51,0-3-.07-4.52-.41-5.91-3-9.62-7.53-10.74-6-1.5-11.61.65-14.6,5.67-2.28,3.82-2.95,8.06-3,12.41-.07,6.53-.1,13,0,19.57,0,2.09-.29,3-2.71,2.93-6.61-.13-6.61,0-6.61-6.54,0-19.77,0-39.54,0-59.3,0-2.3.5-3.1,2.95-3,6.31.15,6.31,0,6.31,6.2Z"/><path class="cls-2" d="M159.75,104.77c0,9.13,0,18.26,0,27.39,0,1.85-.36,2.6-2.44,2.6-7.48,0-7.48.12-7.48-7.43,0-16.55-.06-33.11.06-49.66,0-2.42-.69-3-3-3-6.52.15-13,0-19.57.09-1.64,0-2.25-.38-2.3-2.16C124.87,66,124.8,66,131.51,66c16.66,0,33.32.05,50-.06,2.39,0,3,.64,3,3-.13,5.86,0,5.87-5.79,5.87-5.42,0-10.84.08-16.26,0-2.06,0-2.75.5-2.72,2.65C159.82,86.5,159.75,95.64,159.75,104.77Z"/><path class="cls-2" d="M449.41,93.67a19.45,19.45,0,0,1,16.56-8c10.32.15,17.2,6.2,17.67,16.57.46,10.22.16,20.46.25,30.7,0,1.3-.43,1.87-1.73,1.72a3.11,3.11,0,0,0-.61,0c-6.92.18-6.92.18-6.92-6.72,0-6.73,0-13.45,0-20.17a29.8,29.8,0,0,0-.21-3.9c-.8-5.64-3.21-8.71-7.52-9.74-5.75-1.37-11,.48-14.05,5-2.57,3.8-3.34,8.14-3.4,12.59-.1,6.82-.11,13.65,0,20.47,0,2-.6,2.48-2.53,2.47-6.89,0-6.88.06-6.89-6.87,0-12.84,0-25.68-.12-38.53,0-2,.5-2.73,2.49-2.49s4.77-.87,6.08.47C449.57,88.45,449.11,91.09,449.41,93.67Z"/><path class="cls-2" d="M221.35,110.72c.15-10.15,4.49-18.47,14.31-23,9.57-4.39,18.9-3.37,27.4,3.24,1.91,1.49,2.8,2.81.23,4.45a3.57,3.57,0,0,0-.86.83c-1.85,2.38-3.25,2.75-6,.46-5.25-4.36-11.56-4.53-17.46-1.23-6.37,3.55-8.52,9.73-8,16.63.46,6.55,3.27,12.11,9.79,14.65s12.62,1.41,17.84-3.36c1.09-1,1.74-1.05,2.6.09a18.79,18.79,0,0,0,1.44,1.53c3.35,3.48,3.41,3.56-.71,6.4-8.7,6-18,6.38-27.37,2S221.69,121.05,221.35,110.72Z"/><path class="cls-2" d="M494.44,109.55c0-4.21-.06-8.43,0-12.64,0-1.62-.33-2.53-2.14-2.27a9.61,9.61,0,0,1-1.2,0c-6,0-6,0-5.56-6.07.09-1.32.49-1.76,1.76-1.71,1.71.07,3.42-.08,5.12,0s2.05-.58,2-2.1c-.08-3.81.06-7.63-.07-11.44,0-1.73.53-2.16,2.21-2.19,7.07-.12,7.05-.18,7.08,6.91,0,2.8-.94,6.49.47,8.15,1.64,1.93,5.46.41,8.32.65.1,0,.21,0,.31,0,5.26,0,6.15,1.18,5.13,6.47-.25,1.3-1,1.29-1.92,1.29-3.32,0-6.63.09-9.94,0-1.77-.06-2.46.36-2.42,2.3.12,7.33.06,14.66.07,22,0,.51,0,1,.07,1.51.8,7.59,6.74,10.38,13,5.89,1.85-1.31,2.41-.64,3.41.7,3.07,4.14,3.13,4.31-1.54,6.84a19.33,19.33,0,0,1-16.59,1c-5.43-2-7.12-6.81-7.47-12-.29-4.39-.06-8.82-.06-13.24Z"/><path class="cls-1" d="M68.37,108.25a11.19,11.19,0,0,1,4.77-9.57c1.3-1,1.43-1.75,1-3.23C72.34,89.09,70.7,82.69,69,76.31c-.34-1.26-.59-2.62-2.07-3.07-3.37-1-4.54-3.58-5-6.73a29.58,29.58,0,0,0-.75-2.91c-.18-.72-.82-1.47.25-2.08s1.64-.11,2.43.44c1.78,1.21,3.24,4,5.22,3.44,1.7-.49,1.77-3.55,2.59-5.46.38-.91.87-1.64,1.87-1.72,1.44-.12,1,1.22,1.3,1.94.47,1.32.64,2.75,1.15,4,.87,2.23.85,4.24-.77,6.13-1.21,1.41-1.27,2.92-.73,4.75,1.79,6.15,3.42,12.35,5,18.57a3.1,3.1,0,0,0,2.9,2.71C89,97.58,93,102.59,92.7,109.05c-.24,5.79-4.75,10.47-10.93,11.36C74.78,121.41,68.35,115.58,68.37,108.25Z"/><path class="cls-3" d="M433.08,110.92c0,7-.07,14,0,21.07,0,2-.3,2.79-2.56,2.78-6.95,0-6.95.06-6.95-6.83,0-12.74.05-25.48-.05-38.22,0-2.15.39-3,2.76-2.91,6.76.11,6.76,0,6.76,6.65Z"/><path class="cls-4" d="M485.58,147.63a8.66,8.66,0,0,1,6.66-3c4.81.05,7.59,2.66,7.74,7.62.11,3.61,0,7.22,0,10.82,0,1.4-.16,2.2-1.91,2.21s-2.16-.85-2.13-2.39c.05-3.2,0-6.41,0-9.61,0-2.69-.85-4.75-3.79-5.28-2.71-.49-5.14,1.18-6.08,4.19-1.08,3.43-.42,7-.55,10.45-.05,1.47.15,2.71-2.08,2.65s-2-1.45-2-2.83c0-4.91,0-9.82,0-14.73,0-1.06-.6-2.52,1.34-2.78S485.72,145.33,485.58,147.63Z"/><path class="cls-2" d="M433.62,73.31c0,5.07,0,5.07-5,5.07-5.65,0-5.65,0-5.65-5.6,0-4.93,0-4.93,4.83-4.93h.3C433.62,67.85,433.62,67.85,433.62,73.31Z"/><path class="cls-5" d="M475.07,165.19c-1.88.37-2.7-.23-2.65-2.3.05-1.83.39-2.67,2.48-2.6,1.91.05,2.83.36,2.79,2.58C477.65,164.91,477,165.56,475.07,165.19Z"/><path class="cls-2" d="M327.92,93.2c6.32-6.74,13.74-8.7,22.2-6.69s14.4,9.75,15.45,19.8c.52,5,.49,10-1.42,14.83-4.84,12.16-19,18.18-32.09,13.61-4.28-1.49-4.28-1.49-4.28,3.15,0,5-.06,10,0,15,0,1.7-.24,2.47-2.25,2.5-7,.1-7,.19-7-6.78,0-19.77,0-39.54-.07-59.31,0-1.93.41-2.55,2.43-2.53C327.21,86.86,327.21,86.77,327.92,93.2Zm-.15,29.35a2.71,2.71,0,0,0,1.15,2.54c9.67,7.21,24.09,2.27,26.83-9.29a23,23,0,0,0-.13-10.73c-1.79-7.51-6.47-11.23-13.88-11.12-6.9.1-11.94,4.38-13.4,11.49a49.61,49.61,0,0,0-.56,10.19C327.78,117.94,327.81,120.24,327.77,122.55Z"/><path class="cls-2" d="M200.52,113.52c-5.42,0-10.85.16-16.26-.07-2.76-.12-2.89,1-2.4,3.12,1.51,6.65,8.24,11.71,15.68,11.68,5.07,0,9.78-1.29,13.66-4.62,1.59-1.37,2.38-.93,3.58.36,3.94,4.24,4,4.53-1.06,7.6-8.07,4.88-16.72,6.08-25.72,3.14-10.85-3.56-16.94-13.82-16-26.38,1.25-16.13,15.42-26.32,30.76-22,7.36,2,11.9,7.13,14.53,14.07a38.31,38.31,0,0,1,2.12,10.88c.15,2-.58,2.34-2.36,2.31C211.56,113.45,206,113.52,200.52,113.52Zm7.23-6.84c1.68,0,2-.58,1.83-2.13-.89-6.55-6.43-11.2-13.49-11.23-7.3,0-13.22,4.67-14.35,11.17-.33,1.91.31,2.22,2,2.19,3.91-.09,7.82,0,11.72,0C199.54,106.65,203.65,106.58,207.75,106.68Z"/><path class="cls-2" d="M418.89,111.19a25.2,25.2,0,0,1-26.06,25.05C378.53,136,367.76,124.63,368,110a25.46,25.46,0,0,1,50.91,1.18Zm-9.39-.55c-.08-9.74-7.23-17.28-16.28-17.19s-15.77,7.46-15.77,17.28,7,17.38,16.05,17.33S409.59,120.47,409.5,110.64Z"/><path class="cls-1" d="M517.88,163.21c-5,2.75-9.12,2.69-12.26,0-2.87-2.49-3.95-7.57-2.48-11.71s5.28-6.68,10.05-6.84c8.44-.28,8.88.15,8.87,8.59,0,3.62.1,7.23,0,10.84-.31,7.9-4.55,11.32-12.43,10.11a13.63,13.63,0,0,1-3.15-1c-.85-.35-2.16-.59-1.44-2,.53-1.08,1.11-2.18,2.72-1.21a6.8,6.8,0,0,0,2.58.73C516,171.42,518.26,169.21,517.88,163.21Zm.2-13.06c0-1-.23-1.62-1.38-1.88-3.14-.7-6-.37-8.27,2.07s-2.32,5.23-1.27,8.12c1,2.74,3.32,3.81,6.6,3.23,2.76-.48,4.14-2.21,4.29-4.95.06-1,0-2,0-3C518.07,152.55,518,151.35,518.08,150.15Z"/></svg>