<svg id="Layer_1" data-name="Layer 1" xmlns="http://www.w3.org/2000/svg" viewBox="0 0 554.73 240.43"><defs><style>.cls-1{fill:#d81922;}</style></defs><title>logos</title><path class="cls-1" d="M214.82,55.75c0-.06-25.16,0-25.16,0a67.44,67.44,0,1,0,0,134.87l47.3,0a21.45,21.45,0,0,0,21.52-21.44l0-41.13,32.7,51.57A24.72,24.72,0,0,0,336.56,166V128l32.7,51.57A24.72,24.72,0,0,0,414.6,166V55.69H397.77V166a7.88,7.88,0,0,1-14.42,4.41l-58.2-91.67a3,3,0,0,0-5.44,1.69V166a7.88,7.88,0,0,1-14.42,4.41L247.11,78.71a3,3,0,0,0-5.45,1.69v88.74a4.68,4.68,0,0,1-4.69,4.68l-47.3,0a50.61,50.61,0,1,1,0-101.21h25.16Z"/><path class="cls-1" d="M217.53,152.17a2.4,2.4,0,0,0,2.4-2.39h0V80.4a24.72,24.72,0,0,1,45.4-13.54L297.91,118,298,80.4a24.72,24.72,0,0,1,45.4-13.54L376,118V55.69h16.94l0,110.28a3,3,0,0,1-5.36,1.79L329.22,76A7.89,7.89,0,0,0,314.8,80.4l0,85.57a3,3,0,0,1-5.37,1.79L251.18,76a7.89,7.89,0,0,0-14.42,4.41l0,86.25a2.4,2.4,0,0,1-2.4,2.4H189.66a45.86,45.86,0,0,1,0-91.71s25.16-.09,25.16,0v17l-25.16,0a28.95,28.95,0,0,0,0,57.89l27.87,0Z"/></svg>